Coordinates
nRows=10
nColumns=38

# SIMM Motion File Header:
name Coordinates
datacolumns 38
datarows 10
otherdata 1
range 0.76650000000000007000 0.77549999999999997000

Units are S.I. units (second, meters, Newtons, ...)
Angles are in degrees.

endheader
time	pelvis_tilt	pelvis_list	pelvis_rotation	pelvis_tx	pelvis_ty	pelvis_tz	hip_flexion_r	hip_adduction_r	hip_rotation_r	knee_angle_r	ankle_angle_r	subtalar_angle_r	mtp_angle_r	hip_flexion_l	hip_adduction_l	hip_rotation_l	knee_angle_l	ankle_angle_l	subtalar_angle_l	mtp_angle_l	lumbar_extension	lumbar_bending	lumbar_rotation	arm_flex_r	arm_add_r	arm_rot_r	elbow_flex_r	pro_sup_r	wrist_flex_r	wrist_dev_r	arm_flex_l	arm_add_l	arm_rot_l	elbow_flex_l	pro_sup_l	wrist_flex_l	wrist_dev_l
      0.76650000000000007000	     -8.64837399379615230000	      0.19074050363420494000	      3.04026637740149170000	      0.90879552421357179000	      0.99810925040257426000	     -0.35571657608493495000	     53.18041685395024800000	      6.49840023925166310000	      0.52054496624710211000	   -108.88221593954876000000	      7.93634418441577250000	     -0.00000000000008189494	     -0.00000000000021192861	      1.31042636990973690000	      5.41958744544400610000	      7.51521367662475010000	    -32.89533005167448500000	     16.48270459424972900000	      0.00000000000003857524	      0.00000000000003203682	     -0.93624983450025168000	      0.23097292028435995000	     -7.10186509926761640000	    -25.85794036482614200000	    -13.65084985267136200000	     -5.42259446738496910000	     86.02590545523234800000	    102.41473432280104000000	     -0.00000000000000113181	     -0.00000000000007178934	    -16.42403899814031100000	    -15.71018242257368400000	     -5.52017784298335280000	    122.42144983555566000000	     93.72531089998534500000	      0.00000000000002066828	     -0.00000000000003807666
      0.76750000000000007000	     -8.60533077606782550000	      0.04281068745231127900	      2.91831637315443300000	      0.90932055508498466000	      0.99889263068847178000	     -0.35550038187793859000	     53.35409663639800500000	      6.69611119644664310000	      0.55813104551169979000	   -108.35075193443635000000	      7.93384607288169800000	     -0.00000000000008228873	     -0.00000000000021251651	      0.76082951701855228000	      5.19642971655944750000	      7.38914940584561020000	    -32.45803906777541700000	     15.78689639740201600000	      0.00000000000003863521	      0.00000000000003223827	     -0.88742805768504296000	      0.42021210503392215000	     -7.14683472512406940000	    -26.04483358767115000000	    -13.73668313555415700000	     -5.41561218288562780000	     86.16963279707123000000	    102.28432626362756000000	     -0.00000000000000112949	     -0.00000000000007206043	    -16.41691789206544200000	    -15.64813917907794800000	     -5.46209178907133990000	    122.65075296480508000000	     93.73003171003095700000	      0.00000000000002072675	     -0.00000000000003865571
      0.76850000000000007000	     -8.56258146963896390000	     -0.10505600974567937000	      2.79620702605700620000	      0.90985082084937285000	      0.99968075371735976000	     -0.35528325806834643000	     53.52035979723775900000	      6.89314290829945440000	      0.59539916038794294000	   -107.81108047702496000000	      7.93058488162233920000	     -0.00000000000008268337	     -0.00000000000021310577	      0.21340705399471557000	      4.97442059820062710000	      7.25527394697703710000	    -32.01903238173348100000	     15.07400248028332100000	      0.00000000000003868561	      0.00000000000003246390	     -0.83865782489404728000	      0.60946075862536597000	     -7.18964519161876400000	    -26.23443108004814700000	    -13.82223566284947900000	     -5.41113577148728810000	     86.31798612265022500000	    102.15457722044040000000	     -0.00000000000000112504	     -0.00000000000007232911	    -16.41181032480465200000	    -15.58534285216591700000	     -5.40153063055742420000	    122.87882446765606000000	     93.73837829111683100000	      0.00000000000002078373	     -0.00000000000003923227
      0.76950000000000007000	     -8.52019043242668770000	     -0.25268392234560511000	      2.67399648667924160000	      0.91038577727738046000	      1.00047319645634560000	     -0.35506541127199381000	     53.67930015313084600000	      7.08924864878605020000	      0.63251620737520187000	   -107.26335196288046000000	      7.92650268603852660000	     -0.00000000000008307519	     -0.00000000000021369695	     -0.33155485695685510000	      4.75381784612241630000	      7.11357945487239630000	    -31.57868645050339800000	     14.34477290750170500000	      0.00000000000003875255	      0.00000000000003267581	     -0.78994163686482710000	      0.79853176056441544000	     -7.23031911719111250000	    -26.42662762755287900000	    -13.90743931623121000000	     -5.40924757033949180000	     86.47072176061404000000	    102.02552624392229000000	     -0.00000000000000111974	     -0.00000000000007259573	    -16.40863765565329400000	    -15.52188561669102500000	     -5.33842871185552340000	    123.10554519864800000000	     93.75052990190315000000	      0.00000000000002083995	     -0.00000000000003980277
      0.77050000000000007000	     -8.47821606670534680000	     -0.39989029469576559000	      2.55174566405102650000	      0.91092487267977473000	      1.00126954016388780000	     -0.35484705544780309000	     53.83100797197110400000	      7.28417475558746120000	      0.66964723040081209000	   -106.70771586202547000000	      7.92154330518926650000	     -0.00000000000008346140	     -0.00000000000021428972	     -0.87377127380126585000	      4.53488535672709240000	      6.96408447458171760000	    -31.13739434466791100000	     13.60001486837346000000	      0.00000000000003881128	      0.00000000000003289913	     -0.74128739518060882000	      0.98723039631789999000	     -7.26888419488283600000	    -26.62131178186496800000	    -13.99222732534763800000	     -5.41002272537336190000	     86.62759812028949100000	    101.89720975225273000000	     -0.00000000000000111501	     -0.00000000000007286157	    -16.40732066629962900000	    -15.45786263482323300000	     -5.27272736478963560000	    123.33080348984653000000	     93.76665340962139800000	      0.00000000000002089633	     -0.00000000000004038017
      0.77150000000000007000	     -8.43671107132838220000	     -0.54648567953759541000	      2.42951815850503690000	      0.91146754832964871000	      1.00206937020528320000	     -0.35462841158934832000	     53.97557037802574300000	      7.47766121154698740000	      0.70695468701375130000	   -106.14432067914403000000	      7.91565298701925180000	     -0.00000000000008384974	     -0.00000000000021488168	     -1.41295832720746710000	      4.31789263554028490000	      6.80683533616997580000	    -30.69556577202834500000	     12.84059352998363900000	      0.00000000000003885895	      0.00000000000003313063	     -0.69270803865087660000	      1.17535468942907890000	     -7.30537303837019800000	    -26.81836612185182700000	    -14.07653426590431400000	     -5.41352926550630280000	     86.78837621544114700000	    101.76966218779243000000	     -0.00000000000000110999	     -0.00000000000007312519	    -16.40777942388498900000	    -15.39337190352290100000	     -5.20437513718410830000	    123.55449513157629000000	     93.78690244186718400000	      0.00000000000002095294	     -0.00000000000004095851
      0.77250000000000008000	     -8.39572242210950040000	     -0.69227436083646776000	      2.30737992751567320000	      0.91201323928191302000	      1.00287227634148970000	     -0.35440970726637971000	     54.11307143193384700000	      7.66944245761362800000	      0.74459794846751903000	   -105.57331389081088000000	      7.90878084339650920000	     -0.00000000000008424182	     -0.00000000000021547124	     -1.94883362313405370000	      4.10311422942228980000	      6.64190693198303260000	    -30.25362660703003600000	     12.06743073699525400000	      0.00000000000003890570	      0.00000000000003333060	     -0.64422149138450102000	      1.36269582442913320000	     -7.33982272095251710000	    -27.01766759430624600000	    -14.16029604479346400000	     -5.41982826498708010000	     86.95282011369481300000	    101.64291662178663000000	     -0.00000000000000110476	     -0.00000000000007338583	    -16.40993312631272600000	    -15.32851403838608400000	     -5.13332790368542290000	    123.77652330495900000000	     93.81141682378014900000	      0.00000000000002100905	     -0.00000000000004153649
      0.77350000000000008000	     -8.35529117120556110000	     -0.83705487393725442000	      2.18539877666652370000	      0.91256137555059835000	      1.00367785334800440000	     -0.35419117610632594000	     54.24359197688496400000	      7.85924841228406200000	      0.78273293298251367000	   -104.99484183784452000000	      7.90087903944160440000	     -0.00000000000008463160	     -0.00000000000021606083	     -2.48111704923194450000	      3.89082905525529510000	      6.46940295003868830000	    -29.81201803688264500000	     11.28150174484187400000	      0.00000000000003898657	      0.00000000000003349546	     -0.59585081376761129000	      1.54903873017728430000	     -7.37227409681098140000	    -27.21908794573382600000	    -14.24344988048905100000	     -5.42897409707636220000	     87.12069730664947500000	    101.51700530546344000000	     -0.00000000000000109978	     -0.00000000000007364519	    -16.41369994895933000000	    -15.26339197950373000000	     -5.05954885709119040000	    123.99679844887869000000	     93.84032231285750900000	      0.00000000000002106462	     -0.00000000000004209936
      0.77449999999999997000	     -8.31545243222554480000	     -0.98062078123324325000	      2.06364401011981350000	      0.91311138330371810000	      1.00448570123229080000	     -0.35397305745391017000	     54.36720966933948100000	      8.04680554281251400000	      0.82151148216722125000	   -104.40904955072348000000	      7.89190292890014880000	     -0.00000000000008501793	     -0.00000000000021665206	     -3.00953139212033390000	      3.68131946305870230000	      6.28945613316907440000	    -29.37119562747577100000	     10.48383224236055400000	      0.00000000000003906668	      0.00000000000003368077	     -0.54762412678863304000	      1.73416294345829260000	     -7.40277127390248960000	    -27.42249422906845900000	    -14.32593431946026800000	     -5.44101472269274480000	     87.29177908489766900000	    101.39196019459824000000	     -0.00000000000000109485	     -0.00000000000007390648	    -16.41899693594334100000	    -15.19811063225723700000	     -4.98300846102422850000	    124.21523809383848000000	     93.87373043184648200000	      0.00000000000002112087	     -0.00000000000004265433
      0.77549999999999997000	     -8.27623572524408860000	     -1.12276151087085040000	      1.94218622700283490000	      0.91366268599064282000	      1.00529542502191700000	     -0.35375559620276775000	     54.48399940627746900000	      8.23183783227059070000	      0.86108060212385529000	   -103.81608057085788000000	      7.88181115717466520000	     -0.00000000000008539464	     -0.00000000000021724144	     -3.53380247191920430000	      3.47487025804912090000	      6.10222866754366850000	    -28.93162862829701300000	      9.67549567588202920000	      0.00000000000003913280	      0.00000000000003389637	     -0.49957412403532875000	      1.91784352778325600000	     -7.43136124637747740000	    -27.62774937334681300000	    -14.40768926091070600000	     -5.45599198741444270000	     87.46584089558616900000	    101.26781347803694000000	     -0.00000000000000109131	     -0.00000000000007416543	    -16.42573995835954300000	    -15.13277648341412300000	     -4.90368439928959000000	    124.43176667538509000000	     93.91173832881553100000	      0.00000000000002117750	     -0.00000000000004322598
